<svg width="386" height="107" viewBox="0 0 386 107" fill="none" xmlns="http://www.w3.org/2000/svg">
<path d="M5.50391 66.2273C5.84036 72.8339 8.32415 78.5397 14.2907 82.7746C18.3314 85.6426 26.5923 87.6073 37.1365 82.7746C47.6806 77.942 64.5135 52.0102 69.5012 45.1384C82.6815 26.9798 97.873 21.3305 119.293 23.6108C133.059 25.0763 144.733 29.4855 160.445 46.3107C183.144 70.6191 193.542 122.315 171.575 100.934C158.725 88.4273 186.512 95.3686 197.057 65.4934C201.903 51.7623 207.894 37.6685 217.266 33.8608" stroke="white"/>
<path d="M241.202 13.9293C243.293 12.653 248.149 12.0084 249.618 13.9101C251.13 15.8662 248.668 19.608 246.577 20.8843L239.447 25.2355L240.689 38.5437C240.756 39.2943 240.368 40.0268 239.665 40.4559L236.229 42.5532C235.581 42.9487 234.682 42.6819 234.431 42.0194L230.227 30.8631L223.935 34.703L223.712 39.4449C223.696 39.775 223.506 40.0823 223.198 40.2703L220.632 41.8366C220.158 42.1256 219.51 42.0178 219.148 41.5505C219.132 41.5288 219.088 41.4514 219.056 41.3674L216.356 34.211L209.808 29.4026C209.732 29.3453 209.666 29.2815 209.612 29.2108C209.288 28.7924 209.408 28.2156 209.882 27.9266L212.448 26.3603C212.756 26.1722 213.147 26.1258 213.499 26.2304L218.56 27.748L224.851 23.908L214.643 16.4163C214.036 15.9687 214.08 15.1287 214.728 14.7331L218.164 12.6359C218.867 12.2067 219.774 12.1455 220.541 12.4744L234.072 18.2805L241.202 13.9293Z" fill="#FF6F6B"/>
<path d="M18.336 44.6314C21.248 44.6314 23.776 45.1114 25.92 46.0714C28.096 47.0314 29.76 48.4074 30.912 50.1994C32.064 51.9914 32.64 54.1194 32.64 56.5834C32.64 59.0154 32.064 61.1434 30.912 62.9674C29.76 64.7594 28.096 66.1354 25.92 67.0954C23.776 68.0554 21.248 68.5354 18.336 68.5354H10.752V78.2314H4.512V44.6314H18.336ZM18.048 63.2554C20.768 63.2554 22.832 62.6794 24.24 61.5274C25.648 60.3754 26.352 58.7274 26.352 56.5834C26.352 54.4394 25.648 52.7914 24.24 51.6394C22.832 50.4874 20.768 49.9114 18.048 49.9114H10.752V63.2554H18.048ZM53.3081 52.3114C56.5401 52.3114 59.1321 53.2554 61.0841 55.1434C63.0361 57.0314 64.0121 59.8314 64.0121 63.5434V78.2314H58.0121V64.3114C58.0121 62.0714 57.4841 60.3914 56.4281 59.2714C55.3721 58.1194 53.8681 57.5434 51.9161 57.5434C49.7081 57.5434 47.9641 58.2154 46.6841 59.5594C45.4041 60.8714 44.7641 62.7754 44.7641 65.2714V78.2314H38.7641V42.6154H44.7641V55.5754C45.7561 54.5194 46.9721 53.7194 48.4121 53.1754C49.8841 52.5994 51.5161 52.3114 53.3081 52.3114ZM86.1675 52.3114C89.3995 52.3114 91.9915 53.2554 93.9435 55.1434C95.8955 57.0314 96.8715 59.8314 96.8715 63.5434V78.2314H90.8715V64.3114C90.8715 62.0714 90.3435 60.3914 89.2875 59.2714C88.2315 58.1194 86.7275 57.5434 84.7755 57.5434C82.5675 57.5434 80.8235 58.2154 79.5435 59.5594C78.2635 60.8714 77.6235 62.7754 77.6235 65.2714V78.2314H71.6235V52.5994H77.3355V55.9114C78.3275 54.7274 79.5755 53.8314 81.0795 53.2234C82.5835 52.6154 84.2795 52.3114 86.1675 52.3114ZM116.909 73.4794C119.693 73.4794 122.013 72.5514 123.869 70.6954L127.037 74.3914C125.917 75.7674 124.477 76.8074 122.717 77.5114C120.957 78.2154 118.973 78.5674 116.765 78.5674C113.949 78.5674 111.469 78.0074 109.325 76.8874C107.181 75.7674 105.517 74.2154 104.333 72.2314C103.181 70.2154 102.605 67.9434 102.605 65.4154C102.605 62.9194 103.165 60.6794 104.285 58.6954C105.437 56.6794 107.005 55.1114 108.989 53.9914C111.005 52.8714 113.277 52.3114 115.805 52.3114C118.205 52.3114 120.381 52.8394 122.333 53.8954C124.317 54.9194 125.885 56.4074 127.037 58.3594C128.189 60.2794 128.765 62.5354 128.765 65.1274L109.133 68.9674C109.741 70.4394 110.717 71.5594 112.061 72.3274C113.405 73.0954 115.021 73.4794 116.909 73.4794ZM115.805 57.1114C113.597 57.1114 111.805 57.8314 110.429 59.2714C109.085 60.7114 108.413 62.6474 108.413 65.0794V65.1274L122.909 62.3434C122.493 60.7754 121.645 59.5114 120.365 58.5514C119.117 57.5914 117.597 57.1114 115.805 57.1114ZM142.45 78.5674C140.37 78.5674 138.338 78.2954 136.354 77.7514C134.37 77.2074 132.786 76.5194 131.602 75.6874L133.906 71.1274C135.058 71.8954 136.434 72.5194 138.034 72.9994C139.666 73.4474 141.266 73.6714 142.834 73.6714C146.418 73.6714 148.21 72.7274 148.21 70.8394C148.21 69.9434 147.746 69.3194 146.818 68.9674C145.922 68.6154 144.466 68.2794 142.45 67.9594C140.338 67.6394 138.61 67.2714 137.266 66.8554C135.954 66.4394 134.802 65.7194 133.81 64.6954C132.85 63.6394 132.37 62.1834 132.37 60.3274C132.37 57.8954 133.378 55.9594 135.394 54.5194C137.442 53.0474 140.194 52.3114 143.65 52.3114C145.41 52.3114 147.17 52.5194 148.93 52.9354C150.69 53.3194 152.13 53.8474 153.25 54.5194L150.946 59.0794C148.77 57.7994 146.322 57.1594 143.602 57.1594C141.842 57.1594 140.498 57.4314 139.57 57.9754C138.674 58.4874 138.226 59.1754 138.226 60.0394C138.226 60.9994 138.706 61.6874 139.666 62.1034C140.658 62.4874 142.178 62.8554 144.226 63.2074C146.274 63.5274 147.954 63.8954 149.266 64.3114C150.578 64.7274 151.698 65.4314 152.626 66.4234C153.586 67.4154 154.066 68.8234 154.066 70.6474C154.066 73.0474 153.026 74.9674 150.946 76.4074C148.866 77.8474 146.034 78.5674 142.45 78.5674ZM161.153 78.5674C160.065 78.5674 159.137 78.1994 158.369 77.4634C157.601 76.6954 157.217 75.7354 157.217 74.5834C157.217 73.3994 157.585 72.4394 158.321 71.7034C159.089 70.9674 160.033 70.5994 161.153 70.5994C162.273 70.5994 163.201 70.9674 163.937 71.7034C164.705 72.4394 165.089 73.3994 165.089 74.5834C165.089 75.7354 164.705 76.6954 163.937 77.4634C163.169 78.1994 162.241 78.5674 161.153 78.5674ZM208.121 52.9834C204.953 51.1914 201.657 50.1034 198.233 49.7194V78.2314H191.993V49.7194C188.537 50.1034 185.225 51.1914 182.057 52.9834L179.897 48.1834C182.137 46.8394 184.537 45.8314 187.097 45.1594C189.689 44.4874 192.345 44.1514 195.065 44.1514C197.785 44.1514 200.441 44.4874 203.033 45.1594C205.625 45.8314 208.041 46.8394 210.281 48.1834L208.121 52.9834ZM219.086 56.3434C220.814 53.6554 223.854 52.3114 228.206 52.3114V58.0234C227.694 57.9274 227.23 57.8794 226.814 57.8794C224.478 57.8794 222.654 58.5674 221.342 59.9434C220.03 61.2874 219.374 63.2394 219.374 65.7994V78.2314H213.374V52.5994H219.086V56.3434ZM258.117 52.5994V78.2314H252.405V74.9194C251.413 76.1354 250.181 77.0474 248.709 77.6554C247.269 78.2634 245.669 78.5674 243.909 78.5674C241.413 78.5674 239.173 78.0234 237.189 76.9354C235.237 75.8474 233.701 74.3114 232.581 72.3274C231.493 70.3434 230.949 68.0394 230.949 65.4154C230.949 62.7914 231.493 60.5034 232.581 58.5514C233.701 56.5674 235.237 55.0314 237.189 53.9434C239.173 52.8554 241.413 52.3114 243.909 52.3114C245.573 52.3114 247.093 52.5994 248.469 53.1754C249.877 53.7514 251.093 54.5994 252.117 55.7194V52.5994H258.117ZM244.581 73.4314C246.789 73.4314 248.613 72.6954 250.053 71.2234C251.493 69.7514 252.213 67.8154 252.213 65.4154C252.213 63.0154 251.493 61.0794 250.053 59.6074C248.613 58.1354 246.789 57.3994 244.581 57.3994C242.373 57.3994 240.549 58.1354 239.109 59.6074C237.701 61.0794 236.997 63.0154 236.997 65.4154C236.997 67.8154 237.701 69.7514 239.109 71.2234C240.549 72.6954 242.373 73.4314 244.581 73.4314ZM289.967 52.5994L278.975 78.2314H272.783L261.791 52.5994H268.031L275.999 71.6074L284.207 52.5994H289.967ZM305.206 73.4794C307.99 73.4794 310.31 72.5514 312.166 70.6954L315.334 74.3914C314.214 75.7674 312.774 76.8074 311.014 77.5114C309.254 78.2154 307.27 78.5674 305.062 78.5674C302.246 78.5674 299.766 78.0074 297.622 76.8874C295.478 75.7674 293.814 74.2154 292.63 72.2314C291.478 70.2154 290.902 67.9434 290.902 65.4154C290.902 62.9194 291.462 60.6794 292.582 58.6954C293.734 56.6794 295.302 55.1114 297.286 53.9914C299.302 52.8714 301.574 52.3114 304.102 52.3114C306.502 52.3114 308.678 52.8394 310.63 53.8954C312.614 54.9194 314.182 56.4074 315.334 58.3594C316.486 60.2794 317.062 62.5354 317.062 65.1274L297.43 68.9674C298.038 70.4394 299.014 71.5594 300.358 72.3274C301.702 73.0954 303.318 73.4794 305.206 73.4794ZM304.102 57.1114C301.894 57.1114 300.102 57.8314 298.726 59.2714C297.382 60.7114 296.71 62.6474 296.71 65.0794V65.1274L311.206 62.3434C310.79 60.7754 309.942 59.5114 308.662 58.5514C307.414 57.5914 305.894 57.1114 304.102 57.1114ZM331.275 78.5674C328.619 78.5674 326.539 77.8474 325.035 76.4074C323.563 74.9354 322.827 72.8714 322.827 70.2154V42.6154H328.827V69.7834C328.827 72.3434 330.027 73.6234 332.427 73.6234C333.227 73.6234 333.947 73.4634 334.587 73.1434L334.875 77.9434C333.755 78.3594 332.555 78.5674 331.275 78.5674ZM346.872 78.5674C344.792 78.5674 342.76 78.2954 340.776 77.7514C338.792 77.2074 337.208 76.5194 336.024 75.6874L338.328 71.1274C339.48 71.8954 340.856 72.5194 342.456 72.9994C344.088 73.4474 345.688 73.6714 347.256 73.6714C350.84 73.6714 352.632 72.7274 352.632 70.8394C352.632 69.9434 352.168 69.3194 351.24 68.9674C350.344 68.6154 348.888 68.2794 346.872 67.9594C344.76 67.6394 343.032 67.2714 341.688 66.8554C340.376 66.4394 339.224 65.7194 338.232 64.6954C337.272 63.6394 336.792 62.1834 336.792 60.3274C336.792 57.8954 337.8 55.9594 339.816 54.5194C341.864 53.0474 344.616 52.3114 348.072 52.3114C349.832 52.3114 351.592 52.5194 353.352 52.9354C355.112 53.3194 356.552 53.8474 357.672 54.5194L355.368 59.0794C353.192 57.7994 350.744 57.1594 348.024 57.1594C346.264 57.1594 344.92 57.4314 343.992 57.9754C343.096 58.4874 342.648 59.1754 342.648 60.0394C342.648 60.9994 343.128 61.6874 344.088 62.1034C345.08 62.4874 346.6 62.8554 348.648 63.2074C350.696 63.5274 352.376 63.8954 353.688 64.3114C355 64.7274 356.12 65.4314 357.048 66.4234C358.008 67.4154 358.488 68.8234 358.488 70.6474C358.488 73.0474 357.448 74.9674 355.368 76.4074C353.288 77.8474 350.456 78.5674 346.872 78.5674Z" fill="white"/>
</svg>
